<?xml version="1.0" standalone="no"?>
<!DOCTYPE svg PUBLIC "-//W3C//DTD SVG 20010904//EN"
 "http://www.w3.org/TR/2001/REC-SVG-20010904/DTD/svg10.dtd">
<svg version="1.0" xmlns="http://www.w3.org/2000/svg"
 width="494.000000pt" height="494.000000pt" viewBox="0 0 494.000000 494.000000"
 preserveAspectRatio="xMidYMid meet">
<metadata>
Created by potrace 1.11, written by Peter Selinger 2001-2013
</metadata>
<g transform="translate(0.000000,494.000000) scale(0.100000,-0.100000)"
fill="#000000" stroke="none">
<path d="M4789 4892 c-29 -27 -212 -186 -406 -354 -350 -305 -351 -306 -372
-287 -11 10 -24 19 -29 19 -5 0 -17 9 -26 19 -10 11 -33 27 -52 36 -19 9 -34
20 -34 25 0 6 -5 10 -11 10 -6 0 -26 12 -45 26 -19 15 -34 23 -34 19 0 -5 -8
-1 -17 7 -16 13 -110 70 -123 74 -42 13 -50 18 -50 25 0 5 -8 9 -18 9 -10 0
-22 3 -26 8 -4 4 -11 7 -14 7 -4 0 -31 13 -59 27 -29 15 -53 25 -53 22 0 -2
-13 2 -29 10 -16 9 -31 12 -35 9 -3 -4 -6 -1 -6 5 0 7 -3 11 -7 11 -5 -1 -10
0 -13 1 -3 1 -13 3 -23 5 -10 2 -26 7 -35 11 -19 8 -28 11 -57 18 -11 2 -33 9
-48 15 -15 6 -40 13 -55 16 -28 5 -57 11 -94 21 -44 10 -73 15 -95 15 -12 -1
-24 3 -27 8 -3 4 -18 7 -33 5 -15 -1 -31 0 -37 3 -11 7 -88 14 -163 15 -29 0
-53 3 -53 7 0 7 -163 5 -300 -4 -52 -4 -111 -7 -130 -9 -19 -1 -40 -5 -46 -9
-7 -4 -23 -7 -35 -6 -23 0 -41 -2 -104 -16 -16 -4 -39 -8 -50 -9 -12 -1 -26
-6 -33 -10 -7 -4 -16 -5 -21 -1 -5 3 -13 0 -16 -6 -4 -5 -13 -8 -21 -5 -8 3
-14 1 -14 -3 0 -5 -8 -8 -17 -6 -10 1 -24 -2 -30 -8 -7 -5 -13 -6 -13 -2 0 4
-7 2 -15 -5 -8 -7 -15 -9 -15 -5 0 4 -7 2 -15 -5 -8 -7 -15 -9 -15 -5 0 4 -7
2 -15 -5 -8 -7 -15 -9 -15 -5 0 4 -7 2 -15 -5 -8 -7 -15 -9 -15 -5 0 4 -7 2
-15 -5 -8 -7 -15 -9 -15 -5 0 4 -11 0 -25 -9 -14 -9 -25 -14 -25 -12 0 6 -114
-42 -225 -94 -135 -63 -304 -170 -435 -275 -183 -147 -404 -400 -536 -615 -59
-95 -154 -286 -147 -294 3 -3 2 -6 -4 -6 -10 0 -25 -38 -20 -51 1 -3 -3 -12
-9 -20 -9 -12 -33 -73 -40 -101 -1 -5 -3 -10 -4 -13 -1 -3 -4 -9 -5 -15 -1 -5
-4 -13 -5 -17 -2 -5 -4 -12 -5 -18 -1 -5 -7 -23 -14 -39 -6 -16 -9 -31 -7 -34
3 -2 1 -12 -4 -22 -9 -16 -18 -56 -25 -105 -2 -11 -4 -21 -5 -22 -2 -2 -4 -12
-5 -23 -1 -11 -4 -21 -5 -22 -1 -2 -4 -12 -6 -23 -12 -79 -16 -115 -18 -150
-1 -22 -4 -44 -7 -50 -7 -12 -3 -318 5 -395 11 -101 14 -125 16 -125 1 0 3
-13 5 -30 1 -16 3 -30 5 -30 1 0 4 -16 6 -35 10 -73 12 -85 14 -85 1 0 3 -11
4 -25 3 -22 9 -56 21 -110 2 -8 4 -15 5 -15 1 0 4 -13 6 -30 3 -16 9 -32 15
-33 5 -2 6 -8 3 -13 -3 -6 -2 -15 3 -22 5 -7 15 -31 23 -54 7 -24 17 -43 21
-43 5 0 6 -7 3 -15 -4 -8 -1 -15 6 -15 6 0 9 -4 6 -9 -12 -20 203 -408 257
-462 7 -8 16 -22 20 -31 3 -10 11 -18 17 -18 5 0 10 -5 10 -11 0 -37 335 -384
383 -397 4 -1 19 -14 32 -28 14 -15 25 -23 25 -19 0 4 9 -2 20 -15 11 -13 20
-19 20 -14 0 5 7 -2 16 -14 8 -12 22 -22 30 -22 8 0 14 -5 14 -12 0 -6 3 -9 6
-5 3 3 16 -4 29 -15 13 -11 26 -18 29 -17 3 2 12 -5 20 -16 9 -11 16 -15 16
-10 0 7 3 7 8 0 13 -18 85 -60 197 -115 61 -30 112 -57 115 -60 3 -3 12 -6 20
-7 8 -1 53 -16 100 -33 146 -54 356 -110 470 -126 142 -19 217 -24 378 -24
201 0 321 10 487 42 61 11 117 22 125 23 8 1 22 5 30 7 17 6 96 28 119 33 9 2
50 15 91 30 41 14 80 27 85 29 6 2 26 10 45 19 19 8 38 13 42 11 5 -3 8 0 8 5
0 6 6 11 13 11 6 0 42 16 80 35 37 18 67 31 67 27 0 -4 4 -2 8 4 8 12 68 45
78 43 4 0 10 3 13 8 3 5 35 27 71 48 36 22 70 43 75 47 26 20 135 98 138 98
27 0 362 340 444 450 222 296 362 610 444 995 22 102 24 133 24 410 0 334 -8
401 -81 642 -45 151 -144 388 -180 433 -6 8 -22 35 -35 60 -14 25 -47 78 -74
119 -28 40 -54 81 -60 90 -5 8 -17 21 -25 28 -10 7 -12 15 -5 21 6 5 112 95
238 202 l227 192 0 374 0 374 -48 0 c-43 0 -54 -5 -103 -48z"/>
</g>
</svg>
